<svg width="680" height="130" viewBox="0 0 680 130" fill="none" xmlns="http://www.w3.org/2000/svg">
<rect x="0.5" y="0.5" width="679" height="129" rx="21.5" fill="white"/>
<rect x="0.5" y="0.5" width="679" height="129" rx="21.5" stroke="#DEE6E9"/>
<path d="M648.372 35.216C647.304 35.216 646.368 34.928 645.564 34.352C644.76 33.776 644.13 32.966 643.674 31.922C643.23 30.878 643.008 29.666 643.008 28.286C643.008 26.894 643.23 25.682 643.674 24.65C644.118 23.618 644.742 22.814 645.546 22.238C646.35 21.662 647.286 21.374 648.354 21.374C649.446 21.374 650.388 21.662 651.18 22.238C651.984 22.814 652.614 23.624 653.07 24.668C653.526 25.7 653.754 26.906 653.754 28.286C653.754 29.666 653.526 30.878 653.07 31.922C652.626 32.954 652.002 33.764 651.198 34.352C650.394 34.928 649.452 35.216 648.372 35.216ZM648.39 32.984C649.002 32.984 649.524 32.798 649.956 32.426C650.388 32.042 650.718 31.502 650.946 30.806C651.186 30.098 651.306 29.258 651.306 28.286C651.306 27.314 651.186 26.48 650.946 25.784C650.718 25.076 650.382 24.536 649.938 24.164C649.506 23.792 648.978 23.606 648.354 23.606C647.754 23.606 647.238 23.792 646.806 24.164C646.374 24.536 646.038 25.076 645.798 25.784C645.57 26.48 645.456 27.314 645.456 28.286C645.456 29.246 645.57 30.08 645.798 30.788C646.038 31.484 646.374 32.024 646.806 32.408C647.25 32.792 647.778 32.984 648.39 32.984ZM657.858 35V23.678H655.266V21.59H660.306V35H657.858Z" fill="#9564F4"/>
<rect x="26" y="27" width="76" height="76" rx="29.8571" fill="#9564F4" fill-opacity="0.12"/>
<path d="M50.4297 54.1427V75.857" stroke="#9564F4" stroke-width="2.71429" stroke-linecap="round" stroke-linejoin="round"/>
<path d="M50.4297 59.5713H74.8583C75.5781 59.5713 76.2685 59.8573 76.7775 60.3663C77.2866 60.8753 77.5725 61.5657 77.5725 62.2856V75.857" stroke="#9564F4" stroke-width="2.71429" stroke-linecap="round" stroke-linejoin="round"/>
<path d="M50.4297 71.7856H77.5725" stroke="#9564F4" stroke-width="2.71429" stroke-linecap="round" stroke-linejoin="round"/>
<path d="M55.8574 59.5713V71.7856" stroke="#9564F4" stroke-width="2.71429" stroke-linecap="round" stroke-linejoin="round"/>
<path d="M136.775 56.356V33.06H142.885V56.356C142.885 56.8067 143.023 57.1967 143.301 57.526C143.405 57.682 143.535 57.8207 143.691 57.942C143.864 58.046 144.063 58.124 144.289 58.176C144.497 58.2453 144.705 58.28 144.913 58.28C145.467 58.28 145.935 58.1153 146.317 57.786C146.715 57.4393 146.915 56.9627 146.915 56.356V33.06H153.025V56.356C153.025 58.2973 152.557 59.9093 151.621 61.192C151.135 61.8507 150.572 62.4053 149.931 62.856C149.289 63.2893 148.535 63.636 147.669 63.896C146.837 64.1387 145.918 64.26 144.913 64.26C143.855 64.26 142.911 64.1387 142.079 63.896C141.264 63.636 140.536 63.2893 139.895 62.856C138.543 61.9373 137.624 60.6547 137.139 59.008C136.896 58.1933 136.775 57.3093 136.775 56.356ZM155.614 41.38H161.464C161.464 41.484 161.447 41.6227 161.412 41.796C161.395 41.952 161.343 42.1427 161.256 42.368C161.17 42.6107 161.1 42.81 161.048 42.966C160.996 43.122 160.892 43.33 160.736 43.59C160.684 43.694 160.632 43.798 160.58 43.902C160.528 43.9887 160.476 44.0753 160.424 44.162L160.736 44.422C162.175 42.2207 164.056 41.12 166.378 41.12C167.696 41.12 168.736 41.4667 169.498 42.16C170.278 42.8707 170.79 43.9107 171.032 45.28C171.084 45.6267 171.128 45.9993 171.162 46.398C171.197 46.7793 171.214 47.1867 171.214 47.62V57.682C171.214 58.5313 171.145 59.3287 171.006 60.074C170.885 60.802 170.686 61.4173 170.408 61.92C170.131 62.44 169.802 62.8733 169.42 63.22C169.039 63.5493 168.571 63.8093 168.016 64C167.479 64.1733 166.864 64.26 166.17 64.26C165.39 64.26 164.706 64.1647 164.116 63.974C163.7 63.8527 163.371 63.74 163.128 63.636C162.903 63.532 162.617 63.376 162.27 63.168C161.976 63.012 161.707 62.83 161.464 62.622V71.8H155.614V41.38ZM161.204 49.076V56.304C161.204 56.876 161.317 57.3613 161.542 57.76C161.612 57.8987 161.733 58.0547 161.906 58.228C162.097 58.384 162.314 58.4967 162.556 58.566C162.764 58.6353 163.007 58.67 163.284 58.67C163.527 58.67 163.761 58.644 163.986 58.592C164.212 58.5227 164.42 58.41 164.61 58.254C164.766 58.1153 164.896 57.968 165 57.812C165.122 57.6387 165.217 57.4047 165.286 57.11C165.338 56.8327 165.364 56.564 165.364 56.304V49.076C165.364 48.504 165.252 48.01 165.026 47.594C164.957 47.4727 164.827 47.334 164.636 47.178C164.463 47.0047 164.264 46.8833 164.038 46.814C163.813 46.7447 163.562 46.71 163.284 46.71C163.042 46.71 162.808 46.7447 162.582 46.814C162.357 46.866 162.158 46.97 161.984 47.126C161.811 47.2647 161.664 47.4207 161.542 47.594C161.438 47.75 161.36 47.9753 161.308 48.27C161.239 48.5473 161.204 48.816 161.204 49.076ZM194.496 52.612V54.51H178.688C178.792 55.03 178.956 55.5153 179.182 55.966C179.424 56.3993 179.693 56.772 179.988 57.084C180.317 57.4307 180.664 57.7167 181.028 57.942C181.392 58.1673 181.834 58.3407 182.354 58.462C182.579 58.5313 182.813 58.5833 183.056 58.618C183.316 58.6527 183.584 58.67 183.862 58.67C184.694 58.67 185.456 58.5313 186.15 58.254C186.843 57.9767 187.406 57.5867 187.84 57.084C187.944 56.9627 188.039 56.8327 188.126 56.694C188.212 56.5553 188.29 56.4167 188.36 56.278H194.314C194.071 57.3527 193.716 58.2887 193.248 59.086C192.78 59.8833 192.26 60.5507 191.688 61.088C191.029 61.7467 190.284 62.31 189.452 62.778C188.637 63.246 187.744 63.61 186.774 63.87C186.306 63.9913 185.82 64.0867 185.318 64.156C184.815 64.2253 184.304 64.26 183.784 64.26C182.449 64.26 181.236 64.0693 180.144 63.688C179.069 63.2893 178.107 62.7607 177.258 62.102C175.403 60.6807 174.129 58.7827 173.436 56.408C173.089 55.2293 172.916 53.964 172.916 52.612C172.916 51.312 173.098 50.064 173.462 48.868C173.826 47.672 174.337 46.606 174.996 45.67C175.672 44.7167 176.46 43.902 177.362 43.226C178.28 42.55 179.286 42.03 180.378 41.666C181.487 41.302 182.64 41.12 183.836 41.12C184.997 41.12 186.132 41.3193 187.242 41.718C188.351 42.0993 189.33 42.6367 190.18 43.33C191.064 44.058 191.826 44.89 192.468 45.826C193.126 46.762 193.629 47.8193 193.976 48.998C194.322 50.142 194.496 51.3467 194.496 52.612ZM178.792 50.61H188.75C188.472 49.6913 188.004 48.9027 187.346 48.244C186.704 47.6027 185.95 47.152 185.084 46.892C184.858 46.84 184.633 46.7967 184.408 46.762C184.182 46.7273 183.948 46.71 183.706 46.71C182.822 46.71 181.972 46.944 181.158 47.412C180.863 47.5853 180.551 47.828 180.222 48.14C179.91 48.452 179.624 48.842 179.364 49.31C179.121 49.7433 178.93 50.1767 178.792 50.61ZM202.293 32.8V45.384C202.293 45.5747 202.275 45.8173 202.241 46.112C202.223 46.4067 202.197 46.6667 202.163 46.892C202.111 47.152 202.041 47.4553 201.955 47.802C201.885 48.1487 201.807 48.4953 201.721 48.842C201.669 49.0153 201.617 49.1973 201.565 49.388C201.495 49.5787 201.435 49.7693 201.383 49.96H201.799C201.885 49.648 201.937 49.4487 201.955 49.362C201.989 49.2753 202.024 49.18 202.059 49.076C202.093 48.9547 202.18 48.6947 202.319 48.296C202.44 47.9667 202.561 47.6633 202.683 47.386C202.804 47.1087 202.934 46.814 203.073 46.502C203.142 46.3633 203.211 46.2247 203.281 46.086C203.35 45.9473 203.419 45.8087 203.489 45.67L205.803 41.38H211.653L206.765 49.44L212.043 64H206.193L202.969 55.082L202.293 56.07V64H196.443V32.8H202.293ZM219.838 32.8V45.384C219.838 45.5747 219.82 45.8173 219.786 46.112C219.768 46.4067 219.742 46.6667 219.708 46.892C219.656 47.152 219.586 47.4553 219.5 47.802C219.43 48.1487 219.352 48.4953 219.266 48.842C219.214 49.0153 219.162 49.1973 219.11 49.388C219.04 49.5787 218.98 49.7693 218.928 49.96H219.344C219.43 49.648 219.482 49.4487 219.5 49.362C219.534 49.2753 219.569 49.18 219.604 49.076C219.638 48.9547 219.725 48.6947 219.864 48.296C219.985 47.9667 220.106 47.6633 220.228 47.386C220.349 47.1087 220.479 46.814 220.618 46.502C220.687 46.3633 220.756 46.2247 220.826 46.086C220.895 45.9473 220.964 45.8087 221.034 45.67L223.348 41.38H229.198L224.31 49.44L229.588 64H223.738L220.514 55.082L219.838 56.07V64H213.988V32.8H219.838ZM237.382 32.8V41.38C237.382 41.484 237.365 41.6227 237.33 41.796C237.313 41.952 237.261 42.1427 237.174 42.368C237.088 42.6107 237.018 42.81 236.966 42.966C236.914 43.122 236.81 43.33 236.654 43.59C236.602 43.694 236.55 43.798 236.498 43.902C236.446 43.9887 236.394 44.0753 236.342 44.162L236.654 44.422C236.984 43.9367 237.296 43.5467 237.59 43.252C237.885 42.94 238.214 42.6367 238.578 42.342C238.908 42.082 239.272 41.8567 239.67 41.666C240.069 41.4753 240.459 41.3367 240.84 41.25C241.031 41.2153 241.222 41.1893 241.412 41.172C241.62 41.1373 241.828 41.12 242.036 41.12C242.556 41.12 243.068 41.2067 243.57 41.38C244.09 41.536 244.541 41.7787 244.922 42.108C245.685 42.8013 246.188 43.772 246.43 45.02C246.482 45.332 246.526 45.6613 246.56 46.008C246.595 46.3547 246.612 46.7187 246.612 47.1V64H240.762V48.14C240.762 47.932 240.745 47.776 240.71 47.672C240.676 47.5507 240.606 47.3947 240.502 47.204C240.433 47.1 240.329 47.0047 240.19 46.918C240.052 46.8313 239.93 46.7793 239.826 46.762C239.653 46.7273 239.497 46.71 239.358 46.71C239.22 46.71 239.09 46.7273 238.968 46.762C238.847 46.7793 238.717 46.8053 238.578 46.84C238.422 46.8747 238.292 46.9267 238.188 46.996C238.084 47.048 237.946 47.1173 237.772 47.204C237.703 47.2387 237.634 47.282 237.564 47.334C237.512 47.3687 237.452 47.412 237.382 47.464V64H231.532V32.8H237.382ZM248.554 58.124C248.554 57.2227 248.676 56.3993 248.918 55.654C249.161 54.8913 249.542 54.2067 250.062 53.6C250.582 52.9933 251.224 52.482 251.986 52.066C252.766 51.6327 253.685 51.26 254.742 50.948C255.28 50.792 255.852 50.662 256.458 50.558C257.065 50.4367 257.706 50.3327 258.382 50.246V48.53C258.382 48.3567 258.348 48.166 258.278 47.958C258.226 47.7327 258.157 47.5593 258.07 47.438C257.966 47.2993 257.854 47.178 257.732 47.074C257.611 46.9527 257.446 46.8573 257.238 46.788C257.03 46.736 256.84 46.71 256.666 46.71C256.51 46.71 256.32 46.736 256.094 46.788C255.886 46.84 255.722 46.918 255.6 47.022C255.323 47.23 255.132 47.516 255.028 47.88C254.959 48.088 254.924 48.2787 254.924 48.452V49.05H249.204V47.516C249.204 46.7533 249.308 46.0253 249.516 45.332C249.742 44.6387 250.062 44.032 250.478 43.512C251.328 42.4893 252.55 41.7787 254.144 41.38C254.526 41.2933 254.933 41.2327 255.366 41.198C255.817 41.146 256.276 41.12 256.744 41.12C259.119 41.12 260.965 41.6833 262.282 42.81C263.582 43.9367 264.232 45.5053 264.232 47.516V64H258.382C258.382 63.844 258.4 63.662 258.434 63.454C258.469 63.2287 258.512 63.038 258.564 62.882C258.634 62.6913 258.703 62.5093 258.772 62.336C258.859 62.1453 258.954 61.946 259.058 61.738C259.145 61.582 259.266 61.4087 259.422 61.218L259.11 60.958C258.833 61.4433 258.547 61.8507 258.252 62.18C257.975 62.492 257.672 62.778 257.342 63.038C257.03 63.298 256.684 63.5233 256.302 63.714C255.938 63.8873 255.522 64.0173 255.054 64.104C254.846 64.156 254.63 64.1907 254.404 64.208C254.196 64.2427 253.98 64.26 253.754 64.26C253.182 64.26 252.619 64.1733 252.064 64C251.527 63.844 251.016 63.5667 250.53 63.168C250.097 62.8387 249.733 62.414 249.438 61.894C249.144 61.3567 248.927 60.7847 248.788 60.178C248.702 59.866 248.641 59.5367 248.606 59.19C248.572 58.8433 248.554 58.488 248.554 58.124ZM254.534 57.24C254.534 57.5 254.56 57.7427 254.612 57.968C254.682 58.176 254.76 58.332 254.846 58.436C255.072 58.7827 255.375 58.9993 255.756 59.086C255.964 59.1553 256.164 59.19 256.354 59.19C256.944 59.19 257.62 58.9733 258.382 58.54V53.73C257.862 53.9033 257.394 54.0767 256.978 54.25C256.562 54.4233 256.198 54.6313 255.886 54.874C255.609 55.082 255.358 55.3073 255.132 55.55C254.924 55.7927 254.777 56.0613 254.69 56.356C254.586 56.668 254.534 56.9627 254.534 57.24Z" fill="black"/>
</svg>
