<svg width="159" height="45" viewBox="0 0 159 45" fill="none" xmlns="http://www.w3.org/2000/svg">
<rect x="0.5" y="0.5" width="158" height="44" rx="22" stroke="black"/>
<path d="M34.71 21.698C34.71 22.2673 34.78 22.818 34.92 23.35C35.0693 23.882 35.298 24.386 35.606 24.862C35.8767 25.282 36.2127 25.6507 36.614 25.968C37.0247 26.2853 37.4727 26.5187 37.958 26.668C38.462 26.836 38.9893 26.92 39.54 26.92C40.4453 26.92 41.2433 26.71 41.934 26.29C42.6153 25.87 43.138 25.2913 43.502 24.554C43.586 24.3767 43.6607 24.19 43.726 23.994C43.7913 23.7887 43.8473 23.5787 43.894 23.364H47.254C47.1793 24.176 46.9927 24.9133 46.694 25.576C46.4047 26.2387 46.0313 26.8453 45.574 27.396C44.6127 28.5533 43.39 29.356 41.906 29.804C41.1593 30.028 40.38 30.14 39.568 30.14C38.756 30.14 37.9347 30.014 37.104 29.762C36.2827 29.51 35.4847 29.0947 34.71 28.516C34.0287 28.012 33.4407 27.4007 32.946 26.682C32.4513 25.954 32.078 25.1793 31.826 24.358C31.6953 23.938 31.5927 23.504 31.518 23.056C31.4527 22.608 31.42 22.146 31.42 21.67C31.42 20.6993 31.5553 19.794 31.826 18.954C32.106 18.1047 32.484 17.3347 32.96 16.644C33.492 15.888 34.1127 15.258 34.822 14.754C35.5313 14.2407 36.2407 13.8627 36.95 13.62C37.3607 13.4893 37.7853 13.3867 38.224 13.312C38.6627 13.2373 39.1107 13.2 39.568 13.2C41.1733 13.2 42.6293 13.6247 43.936 14.474C44.5613 14.8847 45.112 15.3793 45.588 15.958C46.064 16.5273 46.442 17.1387 46.722 17.792C47.002 18.464 47.1793 19.192 47.254 19.976H43.894C43.8193 19.556 43.684 19.1593 43.488 18.786C43.3013 18.4033 43.082 18.072 42.83 17.792C42.5687 17.512 42.27 17.2693 41.934 17.064C41.598 16.8493 41.2293 16.686 40.828 16.574C40.408 16.4713 39.9787 16.42 39.54 16.42C38.9427 16.42 38.3967 16.5133 37.902 16.7C37.4073 16.8773 36.9827 17.1013 36.628 17.372C35.816 18.016 35.256 18.8747 34.948 19.948C34.864 20.2187 34.8033 20.5033 34.766 20.802C34.7287 21.0913 34.71 21.39 34.71 21.698ZM54.1897 30.14C53.4804 30.14 52.8177 30.0327 52.2017 29.818C51.5857 29.594 51.035 29.2953 50.5497 28.922C50.0457 28.5487 49.6024 28.11 49.2197 27.606C48.8464 27.102 48.5524 26.514 48.3377 25.842C48.1324 25.226 48.0297 24.568 48.0297 23.868C48.0297 23.196 48.1324 22.5473 48.3377 21.922C48.543 21.2967 48.8324 20.7273 49.2057 20.214C49.5977 19.682 50.0504 19.2293 50.5637 18.856C51.0864 18.4827 51.6417 18.198 52.2297 18.002C52.5377 17.8993 52.855 17.82 53.1817 17.764C53.5084 17.708 53.8444 17.68 54.1897 17.68C54.8524 17.68 55.4964 17.7873 56.1217 18.002C56.7564 18.2167 57.3257 18.506 57.8297 18.87C58.3244 19.2433 58.763 19.6913 59.1457 20.214C59.5377 20.7273 59.8364 21.2967 60.0417 21.922C60.135 22.23 60.2097 22.5473 60.2657 22.874C60.3217 23.2007 60.3497 23.532 60.3497 23.868C60.3497 24.428 60.261 25.03 60.0837 25.674C59.9157 26.318 59.6077 26.9527 59.1597 27.578C58.7864 28.1007 58.3384 28.5533 57.8157 28.936C57.293 29.3187 56.733 29.6127 56.1357 29.818C55.8277 29.9207 55.5104 30 55.1837 30.056C54.857 30.112 54.5257 30.14 54.1897 30.14ZM54.2037 27.13C54.5117 27.13 54.8197 27.0787 55.1277 26.976C55.445 26.8733 55.725 26.7193 55.9677 26.514C56.2757 26.2713 56.5137 26.01 56.6817 25.73C56.859 25.4407 56.9804 25.1747 57.0457 24.932C57.0924 24.7733 57.1297 24.61 57.1577 24.442C57.1857 24.2647 57.1997 24.0873 57.1997 23.91C57.1997 23.546 57.1484 23.2053 57.0457 22.888C56.943 22.5613 56.803 22.2627 56.6257 21.992C56.467 21.768 56.2664 21.5533 56.0237 21.348C55.781 21.1333 55.487 20.9653 55.1417 20.844C54.8337 20.7413 54.521 20.69 54.2037 20.69C53.5317 20.69 52.939 20.8907 52.4257 21.292C52.183 21.4787 51.9637 21.712 51.7677 21.992C51.5717 22.2627 51.427 22.5567 51.3337 22.874C51.287 23.0327 51.2497 23.2007 51.2217 23.378C51.1937 23.5553 51.1797 23.7327 51.1797 23.91C51.1797 24.1993 51.2217 24.5073 51.3057 24.834C51.3897 25.1607 51.5437 25.4873 51.7677 25.814C51.945 26.0753 52.155 26.304 52.3977 26.5C52.6404 26.696 52.925 26.85 53.2517 26.962C53.5597 27.074 53.877 27.13 54.2037 27.13ZM61.3953 17.82H64.5453C64.5453 17.8573 64.536 17.9367 64.5173 18.058C64.4986 18.17 64.4753 18.2587 64.4473 18.324C64.41 18.4267 64.3726 18.5293 64.3353 18.632C64.298 18.7347 64.242 18.856 64.1673 18.996C64.1393 19.052 64.1113 19.108 64.0833 19.164C64.0553 19.2107 64.0226 19.262 63.9853 19.318L64.1533 19.458C64.3306 19.1967 64.4986 18.9867 64.6573 18.828C64.816 18.66 64.9933 18.4967 65.1893 18.338C65.3666 18.198 65.5626 18.0767 65.7773 17.974C65.992 17.8713 66.202 17.7967 66.4073 17.75C66.51 17.7313 66.6126 17.7173 66.7153 17.708C66.8273 17.6893 66.9393 17.68 67.0513 17.68C67.3313 17.68 67.6066 17.7267 67.8773 17.82C68.1573 17.904 68.4 18.0347 68.6053 18.212C69.016 18.5853 69.2866 19.108 69.4173 19.78C69.4453 19.948 69.4686 20.1253 69.4873 20.312C69.506 20.4987 69.5153 20.6947 69.5153 20.9V30H66.3653V21.46C66.3653 21.348 66.356 21.264 66.3373 21.208C66.3186 21.1427 66.2813 21.0587 66.2253 20.956C66.188 20.9 66.132 20.8487 66.0573 20.802C65.9826 20.7553 65.9173 20.7273 65.8613 20.718C65.768 20.6993 65.684 20.69 65.6093 20.69C65.5346 20.69 65.4646 20.6993 65.3993 20.718C65.334 20.7273 65.264 20.7413 65.1893 20.76C65.1053 20.7787 65.0353 20.8067 64.9793 20.844C64.9233 20.872 64.8486 20.9093 64.7553 20.956C64.718 20.9747 64.6806 20.998 64.6433 21.026C64.6153 21.0447 64.5826 21.068 64.5453 21.096V30H61.3953V17.82ZM74.6209 14.88V15.692C74.6209 16.728 74.2056 17.456 73.3749 17.876V18.1C73.7856 17.9133 74.2289 17.82 74.7049 17.82H76.9309V20.76H74.6209V26.57C74.6209 26.85 74.7609 26.99 75.0409 26.99H76.9309L77.0709 30H74.2709C73.8976 30 73.5616 29.9627 73.2629 29.888C72.9643 29.8133 72.7029 29.7013 72.4789 29.552C72.2549 29.4213 72.0683 29.2393 71.9189 29.006C71.7696 28.7727 71.6576 28.516 71.5829 28.236C71.5083 27.9373 71.4709 27.6013 71.4709 27.228V20.76H70.3509V17.82H71.4709V14.88H74.6209ZM77.8344 26.836C77.8344 26.3507 77.8997 25.9073 78.0304 25.506C78.161 25.0953 78.3664 24.7267 78.6464 24.4C78.9264 24.0733 79.2717 23.798 79.6824 23.574C80.1024 23.3407 80.597 23.14 81.1664 22.972C81.4557 22.888 81.7637 22.818 82.0904 22.762C82.417 22.6967 82.7624 22.6407 83.1264 22.594V21.67C83.1264 21.5767 83.1077 21.474 83.0704 21.362C83.0424 21.2407 83.005 21.1473 82.9584 21.082C82.9024 21.0073 82.8417 20.942 82.7764 20.886C82.711 20.8207 82.6224 20.7693 82.5104 20.732C82.3984 20.704 82.2957 20.69 82.2024 20.69C82.1184 20.69 82.0157 20.704 81.8944 20.732C81.7824 20.76 81.6937 20.802 81.6284 20.858C81.479 20.97 81.3764 21.124 81.3204 21.32C81.283 21.432 81.2644 21.5347 81.2644 21.628V21.95H78.1844V21.124C78.1844 20.7133 78.2404 20.3213 78.3524 19.948C78.4737 19.5747 78.6464 19.248 78.8704 18.968C79.3277 18.4173 79.9857 18.0347 80.8444 17.82C81.0497 17.7733 81.269 17.7407 81.5024 17.722C81.745 17.694 81.9924 17.68 82.2444 17.68C83.523 17.68 84.517 17.9833 85.2264 18.59C85.9264 19.1967 86.2764 20.0413 86.2764 21.124V30H83.1264C83.1264 29.916 83.1357 29.818 83.1544 29.706C83.173 29.5847 83.1964 29.482 83.2244 29.398C83.2617 29.2953 83.299 29.1973 83.3364 29.104C83.383 29.0013 83.4344 28.894 83.4904 28.782C83.537 28.698 83.6024 28.6047 83.6864 28.502L83.5184 28.362C83.369 28.6233 83.215 28.8427 83.0564 29.02C82.907 29.188 82.7437 29.342 82.5664 29.482C82.3984 29.622 82.2117 29.7433 82.0064 29.846C81.8104 29.9393 81.5864 30.0093 81.3344 30.056C81.2224 30.084 81.1057 30.1027 80.9844 30.112C80.8724 30.1307 80.7557 30.14 80.6344 30.14C80.3264 30.14 80.023 30.0933 79.7244 30C79.435 29.916 79.1597 29.7667 78.8984 29.552C78.665 29.3747 78.469 29.146 78.3104 28.866C78.1517 28.5767 78.035 28.2687 77.9604 27.942C77.9137 27.774 77.881 27.5967 77.8624 27.41C77.8437 27.2233 77.8344 27.032 77.8344 26.836ZM81.0544 26.36C81.0544 26.5 81.0684 26.6307 81.0964 26.752C81.1337 26.864 81.1757 26.948 81.2224 27.004C81.3437 27.1907 81.507 27.3073 81.7124 27.354C81.8244 27.3913 81.9317 27.41 82.0344 27.41C82.3517 27.41 82.7157 27.2933 83.1264 27.06V24.47C82.8464 24.5633 82.5944 24.6567 82.3704 24.75C82.1464 24.8433 81.9504 24.9553 81.7824 25.086C81.633 25.198 81.4977 25.3193 81.3764 25.45C81.2644 25.5807 81.185 25.7253 81.1384 25.884C81.0824 26.052 81.0544 26.2107 81.0544 26.36ZM95.7087 24.638H98.8867C98.868 25.3007 98.7513 25.912 98.5367 26.472C98.322 27.032 98.0467 27.5313 97.7107 27.97C97.3653 28.418 96.9453 28.81 96.4507 29.146C95.9653 29.4727 95.4567 29.7153 94.9247 29.874C94.6447 29.958 94.36 30.0233 94.0707 30.07C93.7813 30.1167 93.4827 30.14 93.1747 30.14C91.8867 30.14 90.7247 29.7433 89.6887 28.95C89.2127 28.586 88.7927 28.1333 88.4287 27.592C88.0647 27.0413 87.794 26.4627 87.6167 25.856C87.43 25.2307 87.3367 24.5587 87.3367 23.84C87.3367 23.1213 87.4347 22.4493 87.6307 21.824C87.8267 21.1987 88.102 20.634 88.4567 20.13C88.7927 19.626 89.2033 19.192 89.6887 18.828C90.174 18.464 90.7153 18.1793 91.3127 17.974C91.91 17.778 92.5307 17.68 93.1747 17.68C94.3973 17.68 95.4893 18.0067 96.4507 18.66C97.4213 19.3227 98.112 20.2093 98.5227 21.32C98.6253 21.6 98.7047 21.894 98.7607 22.202C98.826 22.51 98.8633 22.832 98.8727 23.168H95.7087C95.69 22.8973 95.6433 22.6313 95.5687 22.37C95.494 22.1087 95.3773 21.8707 95.2187 21.656C94.9107 21.236 94.5047 20.9513 94.0007 20.802C93.7393 20.7273 93.4687 20.69 93.1887 20.69C92.8807 20.69 92.5913 20.7367 92.3207 20.83C92.05 20.9233 91.7933 21.068 91.5507 21.264C91.3173 21.4507 91.1167 21.684 90.9487 21.964C90.79 22.244 90.678 22.5333 90.6127 22.832C90.5753 23 90.5427 23.1727 90.5147 23.35C90.496 23.5273 90.4867 23.714 90.4867 23.91C90.4867 24.274 90.524 24.6287 90.5987 24.974C90.6827 25.31 90.8087 25.6087 90.9767 25.87C91.3033 26.4113 91.742 26.78 92.2927 26.976C92.5633 27.0787 92.862 27.13 93.1887 27.13C93.506 27.13 93.786 27.0927 94.0287 27.018C94.2713 26.9433 94.4907 26.8313 94.6867 26.682C95.0973 26.3833 95.3913 25.9773 95.5687 25.464C95.606 25.3427 95.634 25.212 95.6527 25.072C95.6807 24.932 95.6993 24.7873 95.7087 24.638ZM103.646 14.88V15.692C103.646 16.728 103.231 17.456 102.4 17.876V18.1C102.811 17.9133 103.254 17.82 103.73 17.82H105.956V20.76H103.646V26.57C103.646 26.85 103.786 26.99 104.066 26.99H105.956L106.096 30H103.296C102.923 30 102.587 29.9627 102.288 29.888C101.99 29.8133 101.728 29.7013 101.504 29.552C101.28 29.4213 101.094 29.2393 100.944 29.006C100.795 28.7727 100.683 28.516 100.608 28.236C100.534 27.9373 100.496 27.6013 100.496 27.228V20.76H99.3763V17.82H100.496V14.88H103.646ZM110.846 26.92V17.82H113.996V26.36C113.996 26.556 114.043 26.724 114.136 26.864C114.164 26.9107 114.211 26.9573 114.276 27.004C114.351 27.0507 114.43 27.0833 114.514 27.102C114.598 27.1207 114.678 27.13 114.752 27.13C114.827 27.13 114.897 27.1253 114.962 27.116C115.028 27.0973 115.098 27.0787 115.172 27.06C115.256 27.0413 115.326 27.018 115.382 26.99C115.438 26.9527 115.513 26.9107 115.606 26.864C115.644 26.8453 115.676 26.8267 115.704 26.808C115.742 26.78 115.779 26.752 115.816 26.724V17.82H118.966V30H115.816C115.816 29.9067 115.826 29.8133 115.844 29.72C115.863 29.6267 115.891 29.5147 115.928 29.384C115.947 29.2907 115.98 29.1787 116.026 29.048C116.073 28.9173 116.12 28.8053 116.166 28.712C116.194 28.6653 116.222 28.6187 116.25 28.572C116.269 28.5253 116.292 28.4833 116.32 28.446L116.208 28.362C116.04 28.586 115.868 28.796 115.69 28.992C115.522 29.188 115.345 29.3513 115.158 29.482C114.962 29.622 114.766 29.7433 114.57 29.846C114.384 29.9393 114.178 30.0093 113.954 30.056C113.852 30.084 113.744 30.1027 113.632 30.112C113.53 30.1307 113.422 30.14 113.31 30.14C112.722 30.14 112.214 29.9533 111.784 29.58C111.579 29.4027 111.406 29.1787 111.266 28.908C111.136 28.6373 111.033 28.3433 110.958 28.026C110.884 27.69 110.846 27.3213 110.846 26.92ZM124.842 21.46V20.928C124.842 20.4893 124.567 20.27 124.016 20.27C123.54 20.27 123.302 20.4987 123.302 20.956C123.302 21.0027 123.307 21.054 123.316 21.11C123.325 21.1567 123.358 21.2173 123.414 21.292C123.47 21.3853 123.559 21.4973 123.68 21.628C123.801 21.7493 123.955 21.8893 124.142 22.048C124.235 22.132 124.343 22.2253 124.464 22.328C124.595 22.4307 124.739 22.538 124.898 22.65C125.411 23.0513 125.827 23.3827 126.144 23.644C126.461 23.9053 126.765 24.19 127.054 24.498C127.269 24.7313 127.451 24.9787 127.6 25.24C127.749 25.492 127.852 25.7393 127.908 25.982C127.964 26.2433 127.992 26.514 127.992 26.794C127.992 27.8767 127.647 28.7073 126.956 29.286C126.275 29.8553 125.276 30.14 123.96 30.14C122.933 30.14 122.098 29.958 121.454 29.594C121.081 29.3887 120.791 29.1413 120.586 28.852C120.39 28.5533 120.255 28.2687 120.18 27.998C120.068 27.6247 120.012 27.2327 120.012 26.822V25.73H122.742V26.542C122.742 26.794 122.807 26.9993 122.938 27.158C123.022 27.27 123.097 27.3493 123.162 27.396C123.237 27.4333 123.335 27.466 123.456 27.494C123.512 27.5127 123.568 27.5267 123.624 27.536C123.689 27.5453 123.755 27.55 123.82 27.55C123.932 27.55 124.035 27.5407 124.128 27.522C124.231 27.5033 124.343 27.4613 124.464 27.396C124.632 27.3027 124.744 27.172 124.8 27.004C124.828 26.892 124.842 26.7987 124.842 26.724C124.842 26.6307 124.828 26.5373 124.8 26.444C124.772 26.3507 124.721 26.2527 124.646 26.15C124.581 26.066 124.464 25.9493 124.296 25.8C124.137 25.6507 123.979 25.5107 123.82 25.38C123.717 25.296 123.605 25.2073 123.484 25.114C123.363 25.0207 123.227 24.918 123.078 24.806C122.639 24.47 122.243 24.1527 121.888 23.854C121.543 23.5553 121.263 23.28 121.048 23.028C120.824 22.7667 120.647 22.5193 120.516 22.286C120.385 22.0527 120.292 21.8053 120.236 21.544C120.18 21.292 120.152 21.0307 120.152 20.76C120.152 18.7067 121.403 17.68 123.904 17.68C124.371 17.68 124.805 17.722 125.206 17.806C125.617 17.8807 125.962 17.9927 126.242 18.142C126.83 18.4687 127.227 18.9307 127.432 19.528C127.525 19.8173 127.572 20.158 127.572 20.55V21.46H124.842Z" fill="black"/>
</svg>
