<svg width="124" height="113" viewBox="0 0 124 113" fill="none" xmlns="http://www.w3.org/2000/svg">
<path d="M12.8856 57.8732C12.4185 57.7782 11.9982 57.879 11.6249 58.1757C11.2516 58.4724 10.9743 58.8958 10.7929 59.4459C10.6602 59.8482 10.6092 60.2216 10.6399 60.5662C10.6715 60.9079 10.7734 61.2005 10.9456 61.4442C11.1187 61.685 11.3502 61.8531 11.64 61.9487C11.8826 62.0287 12.1101 62.0398 12.3227 61.982C12.5332 61.9202 12.7264 61.8167 12.9023 61.6713C13.0751 61.525 13.2317 61.3635 13.372 61.1868C13.5093 61.009 13.6279 60.8432 13.7279 60.6892L14.2806 59.8483C14.4208 59.6322 14.5934 59.3972 14.7984 59.1435C15.0044 58.8867 15.2459 58.6565 15.523 58.4527C15.7981 58.245 16.1108 58.1022 16.4612 58.0242C16.8116 57.9463 17.1997 57.9775 17.6256 58.118C18.1166 58.2799 18.5179 58.5548 18.8294 58.9429C19.1418 59.3279 19.3339 59.8045 19.4057 60.3725C19.4784 60.9376 19.3997 61.5692 19.1695 62.2672C18.9549 62.9179 18.6641 63.4468 18.2971 63.8537C17.931 64.2577 17.5153 64.5338 17.0499 64.6821C16.5855 64.8274 16.099 64.8358 15.5904 64.7074L15.965 63.5717C16.3178 63.6552 16.6398 63.6335 16.9309 63.5065C17.22 63.3756 17.4705 63.1729 17.6824 62.8984C17.8923 62.62 18.0567 62.3003 18.1757 61.9395C18.3142 61.5195 18.3705 61.1199 18.3447 60.7408C18.3159 60.3608 18.2109 60.0327 18.0298 59.7565C17.8457 59.4793 17.588 59.2861 17.2568 59.1769C16.9551 59.0774 16.6818 59.0808 16.4369 59.1869C16.192 59.2931 15.965 59.4642 15.756 59.7003C15.547 59.9363 15.3454 60.1995 15.1514 60.4896L14.4632 61.5023C14.0251 62.1449 13.5484 62.6108 13.0333 62.9001C12.5181 63.1893 11.9544 63.233 11.3422 63.0311C10.8334 62.8633 10.4351 62.5795 10.1472 62.1796C9.85735 61.7757 9.68447 61.3055 9.62857 60.7689C9.57069 60.2284 9.63734 59.6683 9.82851 59.0885C10.0216 58.5029 10.2983 58.017 10.6585 57.6307C11.0158 57.2435 11.4187 56.9763 11.8673 56.8291C12.3169 56.6789 12.7734 56.672 13.2367 56.8084L12.8856 57.8732ZM18.8237 47.3025L18.2658 48.3179C17.9407 48.2174 17.6264 48.1815 17.3228 48.2101C17.0207 48.236 16.7361 48.3142 16.469 48.4446C16.2007 48.5708 15.9578 48.7412 15.7404 48.9557C15.523 49.1703 15.3378 49.4168 15.1848 49.6952C14.9058 50.2029 14.7814 50.7333 14.8114 51.2865C14.843 51.8369 15.0418 52.3708 15.4078 52.8882C15.7754 53.4029 16.3221 53.8597 17.0482 54.2586C17.7742 54.6576 18.453 54.8742 19.0845 54.9085C19.7175 54.9401 20.2747 54.8216 20.7563 54.5532C21.2393 54.282 21.6204 53.8926 21.8993 53.3849C22.0523 53.1065 22.1611 52.818 22.2257 52.5194C22.2902 52.2209 22.3052 51.9253 22.2706 51.6326C22.2347 51.3357 22.1467 51.0528 22.0066 50.7839C21.8653 50.5108 21.6665 50.2647 21.4101 50.0457L21.9681 49.0303C22.3546 49.3422 22.6616 49.6922 22.8891 50.0802C23.1166 50.4681 23.2665 50.8775 23.339 51.3082C23.4088 51.7374 23.4023 52.1728 23.3197 52.6142C23.2385 53.0529 23.0817 53.4838 22.8492 53.9069C22.4562 54.622 21.9321 55.162 21.2767 55.5268C20.6214 55.8916 19.8839 56.0568 19.0642 56.0221C18.2446 55.9875 17.3926 55.7272 16.5082 55.2413C15.6239 54.7553 14.9474 54.1757 14.4787 53.5023C14.01 52.829 13.754 52.118 13.7106 51.3692C13.6672 50.6203 13.8419 49.8884 14.2349 49.1733C14.4674 48.7502 14.747 48.3868 15.0739 48.0831C15.4022 47.7766 15.7675 47.5385 16.17 47.3688C16.5697 47.1975 16.9943 47.1039 17.4438 47.0879C17.8905 47.0704 18.3505 47.1419 18.8237 47.3025ZM25.6638 48.9671L18.2985 42.8604L20.3618 40.3718C20.8389 39.7964 21.3288 39.4055 21.8315 39.1993C22.3319 38.9911 22.8258 38.9394 23.3134 39.0443C23.8009 39.1491 24.2617 39.3814 24.6956 39.7412C25.1296 40.101 25.4409 40.5088 25.6294 40.9645C25.818 41.4202 25.8561 41.911 25.7438 42.4369C25.629 42.9607 25.3351 43.508 24.862 44.0786L23.1922 46.0926L22.3866 45.4246L24.0326 43.4395C24.3586 43.0463 24.5634 42.6821 24.6471 42.3469C24.7328 42.0093 24.7149 41.6991 24.5934 41.4163C24.4714 41.1291 24.263 40.8633 23.9681 40.6188C23.6732 40.3742 23.3697 40.2157 23.0577 40.1431C22.7457 40.0705 22.4294 40.1056 22.1087 40.2484C21.7857 40.3891 21.4592 40.6585 21.1292 41.0565L19.8291 42.6245L26.4033 48.0752L25.6638 48.9671ZM25.2296 42.757L30.041 43.6876L29.1822 44.7234L24.3947 43.7639L25.2296 42.757ZM34.3984 33.8396C35.0378 34.6203 35.4494 35.4103 35.6333 36.2099C35.8171 37.0094 35.7895 37.7646 35.5506 38.4756C35.3117 39.1866 34.8766 39.8006 34.2453 40.3176C33.614 40.8347 32.9263 41.1403 32.1822 41.2344C31.4381 41.3286 30.6922 41.2068 29.9445 40.8691C29.1969 40.5313 28.5034 39.9721 27.864 39.1915C27.2246 38.4108 26.813 37.6207 26.6292 36.8212C26.4454 36.0217 26.473 35.2664 26.7119 34.5555C26.9508 33.8445 27.3859 33.2305 28.0172 32.7134C28.6485 32.1964 29.3362 31.8908 30.0803 31.7966C30.8244 31.7025 31.5703 31.8242 32.3179 32.162C33.0656 32.4997 33.7591 33.0589 34.3984 33.8396ZM33.531 34.55C33.0061 33.9091 32.4559 33.456 31.8803 33.1907C31.3071 32.9234 30.7459 32.8256 30.1966 32.897C29.6496 32.9666 29.1521 33.1849 28.7039 33.5519C28.2558 33.919 27.9425 34.3647 27.7642 34.8892C27.5883 35.4117 27.5737 35.9812 27.7204 36.5978C27.8695 37.2124 28.2065 37.8401 28.7314 38.4811C29.2564 39.122 29.8054 39.5761 30.3786 39.8433C30.9541 40.1086 31.5154 40.2065 32.0623 40.137C32.6116 40.0655 33.1104 39.8462 33.5585 39.4792C34.0067 39.1121 34.3187 38.6673 34.4946 38.1448C34.673 37.6204 34.6876 37.0508 34.5385 36.4362C34.3918 35.8197 34.056 35.1909 33.531 34.55ZM39.0409 36.4933L34.4265 28.112L35.4414 27.5532L39.5601 35.0342L43.4561 32.8892L43.9518 33.7895L39.0409 36.4933ZM45.5892 33.0875L42.2918 24.1061L43.3794 23.7068L46.3226 31.7234L50.4976 30.1906L50.8518 31.1554L45.5892 33.0875ZM54.7112 21.5191L54.5961 20.4978L61.7266 19.694L61.8417 20.7153L58.8521 21.0523L59.8087 29.5383L58.6574 29.6681L57.7008 21.1821L54.7112 21.5191ZM72.5857 25.1082C72.509 26.1143 72.2611 26.97 71.8419 27.6752C71.4227 28.3804 70.8812 28.9076 70.2174 29.2568C69.5536 29.606 68.8149 29.7496 68.0013 29.6876C67.1876 29.6256 66.4792 29.3717 65.876 28.9259C65.2728 28.4802 64.8174 27.877 64.51 27.1164C64.2025 26.3558 64.0871 25.4725 64.1638 24.4663C64.2404 23.4601 64.4884 22.6045 64.9076 21.8993C65.3268 21.1941 65.8683 20.6669 66.5321 20.3177C67.1959 19.9684 67.9346 19.8248 68.7482 19.8868C69.5618 19.9489 70.2703 20.2028 70.8735 20.6485C71.4767 21.0943 71.932 21.6975 72.2395 22.4581C72.547 23.2186 72.6624 24.102 72.5857 25.1082ZM71.4678 25.023C71.5307 24.1969 71.4457 23.4892 71.2126 22.8999C70.9826 22.3107 70.6443 21.8523 70.1976 21.5247C69.7541 21.1973 69.2435 21.0116 68.6659 20.9675C68.0882 20.9235 67.5539 21.0296 67.0627 21.2858C66.5746 21.5422 66.1707 21.944 65.851 22.4912C65.5345 23.0387 65.3447 23.7255 65.2817 24.5515C65.2188 25.3776 65.3023 26.0851 65.5322 26.6743C65.7653 27.2636 66.1036 27.722 66.5472 28.0494C66.9939 28.3771 67.506 28.5629 68.0836 28.6069C68.6612 28.651 69.1941 28.5448 69.6821 28.2883C70.1733 28.0322 70.5772 27.6304 70.8938 27.0829C71.2135 26.5357 71.4048 25.849 71.4678 25.023ZM77.6911 31.1381L80.8693 22.1138L86.3156 24.0319L85.9742 25.0013L81.6207 23.4681L80.5468 26.5173L84.6183 27.9512L84.2769 28.9206L80.2054 27.4867L79.1253 30.5535L83.5493 32.1116L83.2079 33.081L77.6911 31.1381ZM90.1762 25.8509L90.386 30.5288L90.4513 30.5653L94.547 28.2956L95.7376 28.9615L90.7766 31.668L91.0671 37.3117L89.8766 36.6458L89.6303 32.0331L89.5651 31.9966L85.5058 34.2011L84.3152 33.5352L89.3414 30.8652L88.9857 25.185L90.1762 25.8509ZM92.2596 38.2094L98.3103 30.7981L100.814 32.8425C101.396 33.3172 101.786 33.8102 101.983 34.3214C102.185 34.8322 102.231 35.3378 102.12 35.8382C102.009 36.3386 101.775 36.8071 101.419 37.2438C101.062 37.6805 100.649 38.0045 100.179 38.2158C99.7113 38.429 99.2063 38.4911 98.6638 38.4021C98.1233 38.3106 97.5648 38.0295 96.9882 37.5588L95.1933 36.0934L95.8432 35.2973L97.6092 36.739C98.0073 37.064 98.3831 37.2562 98.7366 37.3157C99.0901 37.3751 99.4167 37.3322 99.7163 37.1868C100.02 37.0409 100.293 36.8197 100.536 36.5229C100.778 36.2262 100.939 35.9155 101.019 35.5909C101.102 35.2682 101.075 34.9411 100.94 34.6095C100.807 34.2754 100.538 33.944 100.136 33.615L98.5578 32.3269L93.1571 38.9421L92.2596 38.2094ZM98.5895 43.6174L105.752 37.2742L106.52 38.1415L100.127 43.8034L103.076 47.1328L102.306 47.8142L98.5895 43.6174ZM111.372 53.3855C110.511 53.9119 109.672 54.2114 108.855 54.2839C108.038 54.3565 107.294 54.2257 106.622 53.8916C105.951 53.5575 105.402 53.0424 104.976 52.3462C104.551 51.6501 104.342 50.927 104.351 50.177C104.36 49.427 104.582 48.7048 105.019 48.0105C105.456 47.3162 106.105 46.7058 106.966 46.1794C107.827 45.6531 108.666 45.3536 109.483 45.281C110.301 45.2085 111.045 45.3393 111.716 45.6734C112.388 46.0075 112.937 46.5226 113.362 47.2188C113.788 47.9149 113.996 48.638 113.988 49.388C113.979 50.138 113.756 50.8602 113.319 51.5545C112.882 52.2488 112.233 52.8591 111.372 53.3855ZM110.788 52.429C111.494 51.9968 112.019 51.5138 112.36 50.98C112.703 50.4489 112.877 49.9064 112.882 49.3524C112.888 48.8011 112.74 48.2784 112.438 47.7841C112.135 47.2899 111.737 46.9186 111.242 46.6701C110.748 46.4242 110.186 46.3317 109.555 46.3925C108.926 46.456 108.258 46.7038 107.551 47.136C106.844 47.5682 106.319 48.0498 105.976 48.581C105.634 49.1148 105.461 49.6573 105.454 50.2086C105.45 50.7625 105.599 51.2866 105.901 51.7808C106.203 52.2751 106.601 52.6451 107.095 52.8909C107.59 53.1394 108.152 53.232 108.781 53.1685C109.412 53.1076 110.081 52.8611 110.788 52.429ZM108.168 57.5972L116.899 53.6858L118.221 56.6361C118.526 57.3183 118.661 57.9304 118.624 58.4725C118.589 59.0134 118.418 59.4793 118.108 59.8705C117.799 60.2616 117.387 60.5724 116.873 60.8029C116.358 61.0333 115.855 61.1325 115.363 61.1004C114.871 61.0684 114.413 60.8858 113.991 60.5528C113.572 60.2185 113.211 59.7131 112.908 59.0367L111.838 56.6491L112.793 56.2213L113.847 58.5748C114.056 59.0409 114.292 59.3855 114.556 59.6086C114.821 59.8346 115.107 59.9555 115.415 59.9713C115.726 59.9888 116.057 59.9192 116.407 59.7626C116.756 59.606 117.032 59.4037 117.235 59.1558C117.438 58.908 117.546 58.6086 117.56 58.2579C117.576 57.9059 117.479 57.494 117.267 57.0222L116.435 55.1633L108.641 58.6545L108.168 57.5972ZM113.931 59.9501L110.971 63.8559L110.421 62.6281L113.396 58.7563L113.931 59.9501ZM111.432 65.3319L120.672 62.8504L122.169 68.427L121.177 68.6936L119.98 64.2359L116.858 65.0744L117.977 69.2433L116.985 69.5099L115.865 65.3409L112.725 66.1843L113.941 70.7141L112.949 70.9807L111.432 65.3319Z" fill="black"/>
</svg>
